<svg viewBox="0 0 96 96" xmlns="http://www.w3.org/2000/svg">
	<path d="M80,4c-6.627,0-12,5.373-12,12v64c0,6.627,5.373,12,12,12s12-5.373,12-12V16C92,9.373,86.627,4,80,4z M84,80  c0,2.209-1.791,4-4,4s-4-1.791-4-4V16c0-2.209,1.791-4,4-4s4,1.791,4,4V80z"/>
	<path d="M48,28c-6.627,0-12,5.373-12,12v40c0,6.627,5.373,12,12,12s12-5.373,12-12V40C60,33.373,54.627,28,48,28z M52,80  c0,2.209-1.791,4-4,4s-4-1.791-4-4V40c0-2.209,1.791-4,4-4s4,1.791,4,4V80z"/>
	<path d="M16,52C9.373,52,4,57.373,4,64v16c0,6.627,5.373,12,12,12s12-5.373,12-12V64C28,57.373,22.627,52,16,52z M20,80  c0,2.209-1.791,4-4,4s-4-1.791-4-4V64c0-2.209,1.791-4,4-4s4,1.791,4,4V80z"/>
</svg>